<svg width="93" height="26" viewBox="0 0 93 26" fill="none" xmlns="http://www.w3.org/2000/svg">
<path opacity="0.2" d="M8.66699 0.499878H17.333C21.8433 0.499878 25.5 4.15655 25.5 8.66687V17.3329C25.5 21.8432 21.8433 25.4999 17.333 25.4999H8.66699C4.15667 25.4999 0.5 21.8432 0.5 17.3329V8.66687C0.5 4.15655 4.15667 0.499878 8.66699 0.499878Z" stroke="white"/>
<path fill-rule="evenodd" clip-rule="evenodd" d="M6.5 10.3384C6.5 8.17349 8.25497 6.41852 10.4198 6.41852L18.3092 6.41852C18.9668 6.41852 19.5 6.95167 19.5 7.60936V7.60936C19.5 8.26704 18.9668 8.8002 18.3092 8.8002L10.4198 8.8002C9.57034 8.8002 8.88168 9.48886 8.88168 10.3384C8.88168 11.1879 9.57034 11.8765 10.4198 11.8765L15.7042 11.8765C17.8006 11.8765 19.5 13.6893 19.5 15.7857C19.5 17.8821 17.8006 19.5815 15.7042 19.5815H7.69085C7.03317 19.5815 6.50001 19.0484 6.50001 18.3907V18.3907C6.50001 17.733 7.03317 17.1998 7.69085 17.1998H15.7042C16.4852 17.1998 17.1183 16.5667 17.1183 15.7857C17.1183 15.0047 16.4852 14.2582 15.7042 14.2582H10.4198C8.25497 14.2582 6.5 12.5032 6.5 10.3384Z" fill="#1379F0"/>
<path d="M41.648 7.2V9.088H36.112C35.6213 9.088 35.264 9.21067 35.04 9.456C34.816 9.69067 34.704 9.99467 34.704 10.368C34.704 10.528 34.7253 10.688 34.768 10.848C34.8213 10.9973 34.9067 11.136 35.024 11.264C35.152 11.3813 35.3173 11.4773 35.52 11.552C35.7227 11.616 35.984 11.648 36.304 11.648H38.832C39.568 11.648 40.1707 11.744 40.64 11.936C41.1093 12.1173 41.4773 12.3573 41.744 12.656C42.0213 12.9547 42.208 13.296 42.304 13.68C42.4107 14.064 42.464 14.448 42.464 14.832C42.464 15.2907 42.4 15.712 42.272 16.096C42.144 16.48 41.9413 16.816 41.664 17.104C41.3867 17.3813 41.0293 17.6 40.592 17.76C40.1653 17.92 39.6427 18 39.024 18H33.008V16.112H39.088C39.6 16.112 39.9733 15.9893 40.208 15.744C40.4533 15.488 40.576 15.1627 40.576 14.768C40.576 14.5973 40.5493 14.432 40.496 14.272C40.4427 14.1013 40.352 13.9573 40.224 13.84C40.096 13.712 39.92 13.6107 39.696 13.536C39.4827 13.4613 39.2107 13.424 38.88 13.424H36.368C35.6427 13.424 35.0507 13.3333 34.592 13.152C34.1333 12.9707 33.7707 12.7307 33.504 12.432C33.248 12.1333 33.0667 11.7973 32.96 11.424C32.864 11.0507 32.816 10.6773 32.816 10.304C32.816 9.856 32.8747 9.44533 32.992 9.072C33.12 8.688 33.3173 8.35733 33.584 8.08C33.8613 7.80267 34.2133 7.58933 34.64 7.44C35.0667 7.28 35.5787 7.2 36.176 7.2H41.648ZM44.77 9.552V7.552H46.482V9.552H48.818V11.184H46.482V15.184C46.482 15.664 46.5673 15.9947 46.738 16.176C46.9193 16.3573 47.2127 16.448 47.618 16.448H48.786V18H47.266C46.8287 18 46.45 17.952 46.13 17.856C45.8207 17.76 45.5647 17.6 45.362 17.376C45.1593 17.152 45.01 16.8533 44.914 16.48C44.818 16.1067 44.77 15.6427 44.77 15.088V11.184H43.618V9.552H44.77ZM55.506 9.552C56.626 9.552 57.5167 9.904 58.178 10.608C58.8393 11.3013 59.17 12.3573 59.17 13.776C59.17 15.2053 58.8393 16.2667 58.178 16.96C57.5167 17.6533 56.626 18 55.506 18H53.73C52.5993 18 51.7033 17.6533 51.042 16.96C50.3913 16.2667 50.066 15.2053 50.066 13.776C50.066 12.3467 50.3913 11.2853 51.042 10.592C51.7033 9.89867 52.5993 9.552 53.73 9.552H55.506ZM53.89 11.184C53.154 11.184 52.6153 11.3867 52.274 11.792C51.9433 12.1973 51.778 12.8587 51.778 13.776C51.778 14.6933 51.9433 15.3547 52.274 15.76C52.6153 16.1547 53.154 16.352 53.89 16.352H55.346C56.082 16.352 56.6153 16.1547 56.946 15.76C57.2873 15.3547 57.458 14.6933 57.458 13.776C57.458 12.8587 57.2873 12.1973 56.946 11.792C56.6153 11.3867 56.082 11.184 55.346 11.184H53.89ZM66.9444 9.552V11.184H63.9684C63.243 11.184 62.8804 11.5467 62.8804 12.272V18H61.1844V12.016C61.1844 11.1627 61.355 10.5387 61.6964 10.144C62.0484 9.74933 62.6404 9.552 63.4724 9.552H66.9444ZM74.1106 9.552C75.1133 9.552 75.8386 9.78133 76.2866 10.24C76.7346 10.688 76.9586 11.3227 76.9586 12.144C76.9586 12.9227 76.74 13.5253 76.3026 13.952C75.8653 14.368 75.1293 14.576 74.0946 14.576H70.0786V15.184C70.0786 15.5253 70.1746 15.808 70.3666 16.032C70.5693 16.2453 70.9053 16.352 71.3746 16.352H76.5426V18H71.3746C70.8413 18 70.388 17.9307 70.0146 17.792C69.652 17.6533 69.348 17.4613 69.1026 17.216C68.868 16.96 68.6973 16.6667 68.5906 16.336C68.484 15.9947 68.4306 15.6213 68.4306 15.216V12.336C68.4306 11.9413 68.484 11.5733 68.5906 11.232C68.6973 10.8907 68.868 10.5973 69.1026 10.352C69.348 10.096 69.652 9.89867 70.0146 9.76C70.388 9.62133 70.8413 9.552 71.3746 9.552H74.1106ZM70.0786 13.248H74.0466C74.5053 13.248 74.8253 13.1573 75.0066 12.976C75.1986 12.7947 75.2946 12.5493 75.2946 12.24C75.2946 11.92 75.1986 11.664 75.0066 11.472C74.8146 11.28 74.5106 11.184 74.0946 11.184H71.3746C70.9053 11.184 70.5693 11.296 70.3666 11.52C70.1746 11.744 70.0786 12.0213 70.0786 12.352V13.248ZM80.7401 5.888V18H79.0441V5.888H80.7401ZM92.0011 9.552L86.9131 21.392H85.0891L86.6731 17.696C86.1931 17.696 85.8411 17.616 85.6171 17.456C85.4038 17.296 85.2278 17.0293 85.0891 16.656L82.2571 9.552H84.0491L86.5931 15.84C86.6465 15.9893 86.7051 16.0853 86.7691 16.128C86.8331 16.1707 86.9451 16.192 87.1051 16.192H87.3291L90.1931 9.552H92.0011Z" fill="white"/>
</svg>
