<svg width="26" height="26" viewBox="0 0 26 26" fill="none" xmlns="http://www.w3.org/2000/svg">
<path opacity="0.2" d="M8.66699 0.499878H17.333C21.8433 0.499878 25.5 4.15655 25.5 8.66687V17.3329C25.5 21.8432 21.8433 25.4999 17.333 25.4999H8.66699C4.15667 25.4999 0.5 21.8432 0.5 17.3329V8.66687C0.5 4.15655 4.15667 0.499878 8.66699 0.499878Z" stroke="black"/>
<path fill-rule="evenodd" clip-rule="evenodd" d="M6.5 10.3384C6.5 8.17349 8.25497 6.41852 10.4198 6.41852L18.3092 6.41852C18.9668 6.41852 19.5 6.95167 19.5 7.60936V7.60936C19.5 8.26704 18.9668 8.8002 18.3092 8.8002L10.4198 8.8002C9.57034 8.8002 8.88168 9.48886 8.88168 10.3384C8.88168 11.1879 9.57034 11.8765 10.4198 11.8765L15.7042 11.8765C17.8006 11.8765 19.5 13.6893 19.5 15.7857C19.5 17.8821 17.8006 19.5815 15.7042 19.5815H7.69085C7.03317 19.5815 6.50001 19.0484 6.50001 18.3907V18.3907C6.50001 17.733 7.03317 17.1998 7.69085 17.1998H15.7042C16.4852 17.1998 17.1183 16.5667 17.1183 15.7857C17.1183 15.0047 16.4852 14.2582 15.7042 14.2582H10.4198C8.25497 14.2582 6.5 12.5032 6.5 10.3384Z" fill="#1379F0"/>
</svg>
