<svg width="93" height="30" viewBox="0 0 93 30" fill="none" xmlns="http://www.w3.org/2000/svg">
<path opacity="0.2" d="M8.66699 2.49988H17.333C21.8433 2.49988 25.5 6.15655 25.5 10.6669V19.3329C25.5 23.8432 21.8433 27.4999 17.333 27.4999H8.66699C4.15667 27.4999 0.5 23.8432 0.5 19.3329V10.6669C0.5 6.15655 4.15667 2.49988 8.66699 2.49988Z" stroke="black"/>
<path fill-rule="evenodd" clip-rule="evenodd" d="M6.5 12.3384C6.5 10.1735 8.25497 8.41852 10.4198 8.41852L18.3092 8.41852C18.9668 8.41852 19.5 8.95167 19.5 9.60936V9.60936C19.5 10.267 18.9668 10.8002 18.3092 10.8002L10.4198 10.8002C9.57034 10.8002 8.88168 11.4889 8.88168 12.3384C8.88168 13.1879 9.57034 13.8765 10.4198 13.8765L15.7042 13.8765C17.8006 13.8765 19.5 15.6893 19.5 17.7857C19.5 19.8821 17.8006 21.5815 15.7042 21.5815H7.69085C7.03317 21.5815 6.50001 21.0484 6.50001 20.3907V20.3907C6.50001 19.733 7.03317 19.1998 7.69085 19.1998H15.7042C16.4852 19.1998 17.1183 18.5667 17.1183 17.7857C17.1183 17.0047 16.4852 16.2582 15.7042 16.2582H10.4198C8.25497 16.2582 6.5 14.5032 6.5 12.3384Z" fill="#1379F0"/>
<path d="M41.648 9.2V11.088H36.112C35.6213 11.088 35.264 11.2107 35.04 11.456C34.816 11.6907 34.704 11.9947 34.704 12.368C34.704 12.528 34.7253 12.688 34.768 12.848C34.8213 12.9973 34.9067 13.136 35.024 13.264C35.152 13.3813 35.3173 13.4773 35.52 13.552C35.7227 13.616 35.984 13.648 36.304 13.648H38.832C39.568 13.648 40.1707 13.744 40.64 13.936C41.1093 14.1173 41.4773 14.3573 41.744 14.656C42.0213 14.9547 42.208 15.296 42.304 15.68C42.4107 16.064 42.464 16.448 42.464 16.832C42.464 17.2907 42.4 17.712 42.272 18.096C42.144 18.48 41.9413 18.816 41.664 19.104C41.3867 19.3813 41.0293 19.6 40.592 19.76C40.1653 19.92 39.6427 20 39.024 20H33.008V18.112H39.088C39.6 18.112 39.9733 17.9893 40.208 17.744C40.4533 17.488 40.576 17.1627 40.576 16.768C40.576 16.5973 40.5493 16.432 40.496 16.272C40.4427 16.1013 40.352 15.9573 40.224 15.84C40.096 15.712 39.92 15.6107 39.696 15.536C39.4827 15.4613 39.2107 15.424 38.88 15.424H36.368C35.6427 15.424 35.0507 15.3333 34.592 15.152C34.1333 14.9707 33.7707 14.7307 33.504 14.432C33.248 14.1333 33.0667 13.7973 32.96 13.424C32.864 13.0507 32.816 12.6773 32.816 12.304C32.816 11.856 32.8747 11.4453 32.992 11.072C33.12 10.688 33.3173 10.3573 33.584 10.08C33.8613 9.80267 34.2133 9.58933 34.64 9.44C35.0667 9.28 35.5787 9.2 36.176 9.2H41.648ZM44.77 11.552V9.552H46.482V11.552H48.818V13.184H46.482V17.184C46.482 17.664 46.5673 17.9947 46.738 18.176C46.9193 18.3573 47.2127 18.448 47.618 18.448H48.786V20H47.266C46.8287 20 46.45 19.952 46.13 19.856C45.8207 19.76 45.5647 19.6 45.362 19.376C45.1593 19.152 45.01 18.8533 44.914 18.48C44.818 18.1067 44.77 17.6427 44.77 17.088V13.184H43.618V11.552H44.77ZM55.506 11.552C56.626 11.552 57.5167 11.904 58.178 12.608C58.8393 13.3013 59.17 14.3573 59.17 15.776C59.17 17.2053 58.8393 18.2667 58.178 18.96C57.5167 19.6533 56.626 20 55.506 20H53.73C52.5993 20 51.7033 19.6533 51.042 18.96C50.3913 18.2667 50.066 17.2053 50.066 15.776C50.066 14.3467 50.3913 13.2853 51.042 12.592C51.7033 11.8987 52.5993 11.552 53.73 11.552H55.506ZM53.89 13.184C53.154 13.184 52.6153 13.3867 52.274 13.792C51.9433 14.1973 51.778 14.8587 51.778 15.776C51.778 16.6933 51.9433 17.3547 52.274 17.76C52.6153 18.1547 53.154 18.352 53.89 18.352H55.346C56.082 18.352 56.6153 18.1547 56.946 17.76C57.2873 17.3547 57.458 16.6933 57.458 15.776C57.458 14.8587 57.2873 14.1973 56.946 13.792C56.6153 13.3867 56.082 13.184 55.346 13.184H53.89ZM66.9444 11.552V13.184H63.9684C63.243 13.184 62.8804 13.5467 62.8804 14.272V20H61.1844V14.016C61.1844 13.1627 61.355 12.5387 61.6964 12.144C62.0484 11.7493 62.6404 11.552 63.4724 11.552H66.9444ZM74.1106 11.552C75.1133 11.552 75.8386 11.7813 76.2866 12.24C76.7346 12.688 76.9586 13.3227 76.9586 14.144C76.9586 14.9227 76.74 15.5253 76.3026 15.952C75.8653 16.368 75.1293 16.576 74.0946 16.576H70.0786V17.184C70.0786 17.5253 70.1746 17.808 70.3666 18.032C70.5693 18.2453 70.9053 18.352 71.3746 18.352H76.5426V20H71.3746C70.8413 20 70.388 19.9307 70.0146 19.792C69.652 19.6533 69.348 19.4613 69.1026 19.216C68.868 18.96 68.6973 18.6667 68.5906 18.336C68.484 17.9947 68.4306 17.6213 68.4306 17.216V14.336C68.4306 13.9413 68.484 13.5733 68.5906 13.232C68.6973 12.8907 68.868 12.5973 69.1026 12.352C69.348 12.096 69.652 11.8987 70.0146 11.76C70.388 11.6213 70.8413 11.552 71.3746 11.552H74.1106ZM70.0786 15.248H74.0466C74.5053 15.248 74.8253 15.1573 75.0066 14.976C75.1986 14.7947 75.2946 14.5493 75.2946 14.24C75.2946 13.92 75.1986 13.664 75.0066 13.472C74.8146 13.28 74.5106 13.184 74.0946 13.184H71.3746C70.9053 13.184 70.5693 13.296 70.3666 13.52C70.1746 13.744 70.0786 14.0213 70.0786 14.352V15.248ZM80.7401 7.888V20H79.0441V7.888H80.7401ZM92.0011 11.552L86.9131 23.392H85.0891L86.6731 19.696C86.1931 19.696 85.8411 19.616 85.6171 19.456C85.4038 19.296 85.2278 19.0293 85.0891 18.656L82.2571 11.552H84.0491L86.5931 17.84C86.6465 17.9893 86.7051 18.0853 86.7691 18.128C86.8331 18.1707 86.9451 18.192 87.1051 18.192H87.3291L90.1931 11.552H92.0011Z" fill="black"/>
</svg>
