<svg width="50" height="50" viewBox="0 0 50 50" fill="none" xmlns="http://www.w3.org/2000/svg">
<rect width="50" height="50" fill="black"/>
<path opacity="0.2" d="M20.667 12.4999H29.333C33.8433 12.4999 37.5 16.1565 37.5 20.6669V29.3329C37.5 33.8432 33.8433 37.4999 29.333 37.4999H20.667C16.1567 37.4999 12.5 33.8432 12.5 29.3329V20.6669C12.5 16.1565 16.1567 12.4999 20.667 12.4999Z" stroke="white"/>
<path fill-rule="evenodd" clip-rule="evenodd" d="M18.5 22.3384C18.5 20.1735 20.255 18.4185 22.4198 18.4185H30.3092C30.9668 18.4185 31.5 18.9517 31.5 19.6094V19.6094C31.5 20.267 30.9668 20.8002 30.3092 20.8002H22.4198C21.5703 20.8002 20.8817 21.4889 20.8817 22.3384C20.8817 23.1879 21.5703 23.8765 22.4198 23.8765L27.7042 23.8765C29.8006 23.8765 31.5 25.6893 31.5 27.7857C31.5 29.8821 29.8006 31.5815 27.7042 31.5815H19.6909C19.0332 31.5815 18.5 31.0484 18.5 30.3907V30.3907C18.5 29.733 19.0332 29.1998 19.6908 29.1998H27.7042C28.4852 29.1998 29.1183 28.5667 29.1183 27.7857C29.1183 27.0047 28.4852 26.2582 27.7042 26.2582H22.4198C20.255 26.2582 18.5 24.5032 18.5 22.3384Z" fill="#1379F0"/>
</svg>
